HIERARCHY
ROOT Hips
{
  OFFSET -93.9772 97.8598 -123.146
  CHANNELS 6 Xposition Yposition Zposition Zrotation Xrotation Yrotation
  JOINT ToSpine
  {
    OFFSET -2.69724 7.43032 -0.144315
    CHANNELS 3 Zrotation Xrotation Yrotation
    JOINT Spine
    {
      OFFSET -0.0310711 10.7595 1.96963
      CHANNELS 3 Zrotation Xrotation Yrotation
      JOINT Spine1
      {
        OFFSET 13.1342 3.43533 0.764692
        CHANNELS 3 Zrotation Xrotation Yrotation
        JOINT Neck
        {
          OFFSET 29.8703 7.82586 -0.130764
          CHANNELS 3 Zrotation Xrotation Yrotation
          JOINT Head
          {
            OFFSET 9.52751 0.295786 -0.907742
            CHANNELS 3 Zrotation Xrotation Yrotation
            End Site
            {
              OFFSET 16.4037 0.713936 2.7358
            }
          }
        }
        JOINT LeftShoulder
        {
          OFFSET 27.5574 4.95586 2.47156
          CHANNELS 3 Zrotation Xrotation Yrotation
          JOINT LeftArm
          {
            OFFSET 1.20734 -0.998971 20.1238
            CHANNELS 3 Zrotation Xrotation Yrotation
            JOINT LeftForeArm
            {
              OFFSET 26.8049 -0.0536703 -0.155908
              CHANNELS 3 Zrotation Xrotation Yrotation
              JOINT LeftHand
              {
                OFFSET 26.6817 0 0.320147
                CHANNELS 3 Zrotation Xrotation Yrotation
                End Site
                {
                  OFFSET 18.6119 0 0.382219
                }
              }
            }
          }
        }
        JOINT RightShoulder
        {
          OFFSET 27.5927 4.71444 -2.65209
          CHANNELS 3 Zrotation Xrotation Yrotation
          JOINT RightArm
          {
            OFFSET 2.83739 -1.17114 -18.7564
            CHANNELS 3 Zrotation Xrotation Yrotation
            JOINT RightForeArm
            {
              OFFSET 28.839 -0.0548439 1.22491
              CHANNELS 3 Zrotation Xrotation Yrotation
              JOINT RightHand
              {
                OFFSET 26.5114 0 -0.101894
                CHANNELS 3 Zrotation Xrotation Yrotation
                End Site
                {
                  OFFSET 18.2168 0 0
                }
              }
            }
          }
        }
      }
    }
  }
  JOINT LeftUpLeg
  {
    OFFSET -4.76168 -1.9167 -10.2353
    CHANNELS 3 Zrotation Xrotation Yrotation
    JOINT LeftLeg
    {
      OFFSET 2.55951 -42.0585 -8.02213
      CHANNELS 3 Zrotation Xrotation Yrotation
      JOINT LeftFoot
      {
        OFFSET 3.16357 -42.5282 -3.95426
        CHANNELS 3 Zrotation Xrotation Yrotation
        JOINT LeftToeBase
        {
          OFFSET 0.346054 -6.02161 12.8035
          CHANNELS 3 Zrotation Xrotation Yrotation
          End Site
          {
            OFFSET 0.134235 -1.35082 5.13018
          }
        }
      }
    }
  }
  JOINT RightUpLeg
  {
    OFFSET -4.94151 -1.41743 10.6446
    CHANNELS 3 Zrotation Xrotation Yrotation
    JOINT RightLeg
    {
      OFFSET -2.56294 -42.0364 -7.94377
      CHANNELS 3 Zrotation Xrotation Yrotation
      JOINT RightFoot
      {
        OFFSET -3.0952 -42.555 -4.02241
        CHANNELS 3 Zrotation Xrotation Yrotation
        JOINT RightToeBase
        {
          OFFSET -0.0828122 -6.13587 12.8035
          CHANNELS 3 Zrotation Xrotation Yrotation
          End Site
          {
            OFFSET -0.131328 -1.35082 5.13018
          }
        }
      }
    }
  }
}
MOTION
Frames:	18
Frame Time:	0.0333333
-267.603 91.5593 -292.677 -53.3699 49.4083 153.051 -70.1915 0 88.8779 115.989 71.0146 -31.1263 -3.03867 22.5357 3.14358 -159.677 13.57 -179.79 -158.897 53.2605 -168.861 0.481683 -12.8434 -31.8093 -76.1149 49.1143 -68.7336 7.33643 2.27008 -72.4557 0.420957 0.000575424 0.35866 -2.10575 6.69713 45.7948 -73.8542 -31.9571 82.8608 15.9075 -7.55355 65.1787 0.58676 0.000331165 0.0646653 -38.7652 -1.39663 92.4764 -5.85241 58.8871 -7.15269 2.52057 -13.0282 -1.16167 6.91338 -15.6987 16.2585 -27.8658 3.74453 91.6015 12.6794 77.3197 -13.8565 -9.34359 -1.07323 1.35445 1.36415 -26.161 -26.2186 
-261.986 90.2616 -286.947 -53.7541 49.4433 153.361 -70.1915 0 88.8779 112.094 72.3205 -26.3257 -1.42727 23.4467 2.08382 -161.66 14.2571 179.167 -160.23 53.9704 -169.954 0.365088 -13.3724 -31.9465 -74.5211 51.2865 -67.6323 11.507 6.21802 -61.5355 0.420957 0.000575424 0.35866 -2.10172 7.0989 43.9601 -75.7809 -31.482 88.5314 17.267 -7.02149 68.4452 0.58676 0.000331165 0.0646653 -33.3016 -0.993792 91.8437 -5.96655 60.0178 -5.68082 4.72438 -16.463 -1.32745 3.69677 -10.7068 14.6248 -35.148 1.46177 90.8233 19.7644 82.4408 -26.4765 -10.0224 -1.71042 1.43026 2.28156 -23.3277 -13.6909 
-256.585 90.0698 -281.819 -57.3916 48.6541 156.432 -70.1915 0 88.8779 113.954 72.3033 -28.0272 -2.16666 23.8304 2.07144 -160.146 15.445 177.437 -159.001 54.9504 -171.474 0.196594 -14.0613 -32.5207 -70.0344 54.1477 -65.1283 9.01175 5.39055 -58.9894 0.420957 0.000575424 0.35866 -1.98873 7.16777 42.132 -76.7652 -32.2757 91.2225 19.3725 -6.20232 72.7999 0.58676 0.000331165 0.0646653 -30.7874 -1.14968 91.4873 -5.08751 57.9213 -4.24779 4.15063 -15.0683 -1.27494 1.99 -7.28771 11.0129 -47.3265 -1.18788 88.9118 14.5459 80.0006 -20.3859 -10.0857 1.66982 1.47062 2.36948 -20.9138 -9.6795 
-250.969 91.3978 -276.986 -60.7146 47.0984 160.167 -70.1915 0 88.8779 115.07 72.9287 -27.6593 -1.36236 24.7267 1.3128 -158.576 17.4716 176.021 -158.181 56.9165 -171.706 0.34371 -13.5146 -31.6541 -64.8594 56.6096 -65.158 7.53576 4.05755 -61.5276 0.420957 0.000575424 0.35866 -1.9299 7.22269 41.1131 -77.0317 -32.6892 92.0995 19.6975 -4.49396 77.509 0.58676 0.000331165 0.0646653 -30.0209 -0.917173 89.6057 -4.30012 51.917 -8.17953 4.10274 -8.18664 -0.970376 0.588851 -5.1132 11.7578 -60.3149 -2.18864 84.9624 5.59011 69.0715 -10.3492 -8.90243 4.15679 1.29941 2.25881 -18.2111 -8.37722 
-244.68 94.1836 -271.375 -57.9304 45.6263 158.611 -70.1915 0 88.8779 111.391 75.152 -21.3819 -1.2782 26.6061 0.0622283 -158.76 19.6814 176.814 -159.495 59.2044 -171.572 0.614393 -12.3965 -29.9648 -62.004 58.5489 -66.1601 6.42455 3.20075 -63.3352 0.420957 0.000575424 0.35866 -1.79419 7.01198 40.0355 -76.142 -32.6407 91.8446 21.8691 -3.3786 81.4748 0.58676 0.000331165 0.0646653 -29.3575 0.329078 89.4631 -2.5215 36.9026 -8.52585 -2.17088 3.32004 0.510277 -0.119178 -0.0876423 0.76224 -66.055 -0.177033 86.0216 2.54769 55.4173 -6.16232 -4.38958 6.03329 0.481139 1.92408 -11.8443 -8.22459 
-237.456 96.965 -265.252 -55.5632 43.872 157.718 -70.1915 0 88.8779 115.572 75.3361 -24.2994 -4.13317 27.147 0.226145 -158.904 21.1669 178.312 -162.666 60.8953 -169.229 0.90037 -10.9784 -28.5928 -67.3758 60.396 -60.5502 6.50911 2.81751 -66.3624 0.420957 0.000575424 0.35866 -1.72601 6.95947 39.267 -72.5661 -32.6053 91.6949 24.3528 -2.52729 84.2462 0.58676 0.000331165 0.0646653 -29.8266 3.08436 94.5969 -1.48657 20.2696 -17.813 -11.9421 17.0031 4.52787 0.00745314 -1.92612 4.8411 -68.153 3.08919 88.6248 2.03054 43.9041 -0.135328 -3.74715 11.0128 0.145364 1.99336 -9.70331 -10.5336 
-230.197 98.2143 -258.912 -51.0112 41.4908 154.994 -70.1915 0 88.8779 98.5963 76.4082 -5.79747 -1.84103 27.3449 -1.60776 -161.548 20.9401 177.479 -161.021 60.5443 -172.756 0.980687 -10.541 -28.2966 -76.6494 60.1573 -52.5027 6.59222 2.2329 -70.9736 0.420957 0.000575424 0.35866 -1.66969 6.67531 39.5414 -70.8749 -33.279 91.2015 25.1242 -2.29691 84.9216 0.58676 0.000331165 0.0646653 -24.6593 3.9637 93.8949 -1.87587 22.7094 -17.6565 -9.43125 10.9317 2.86929 2.2744 -7.43011 9.46745 -64.697 5.8212 92.2789 1.69957 37.7276 1.2904 -4.94097 12.3374 0.36746 2.37237 -20.0998 -7.47747 
-223.072 98.1802 -252.337 -51.6053 40.7985 155.859 -70.1915 0 88.8779 104.202 75.4337 -10.5398 -1.81477 26.7965 -2.31311 -164.989 20.3773 177.816 -160.748 60.0115 -174.121 0.913732 -10.8539 -30.0829 -82.7902 57.4773 -49.7237 8.35077 2.41797 -73.4802 0.420957 0.000575424 0.35866 -1.68964 6.54266 40.3727 -70.6709 -33.8813 89.479 24.2806 -3.33234 82.4768 0.58676 0.000331165 0.0646653 -23.3486 3.1192 89.0854 -2.80416 35.9168 -12.0091 -5.65441 4.2825 1.18338 5.12315 -12.8659 14.2967 -61.7118 7.61574 93.5472 1.73916 37.2009 1.75807 -7.05642 7.86549 0.935084 2.17871 -16.6556 -8.41032 
-215.555 97.1133 -245.534 -55.1297 40.1839 156.541 -70.1915 0 88.8779 114.978 73.6067 -25.4134 -4.47369 25.5542 0.393228 -164.216 19.987 178.712 -160.624 59.7131 -172.432 0.716533 -11.7342 -31.837 -83.0504 54.6648 -53.2132 8.79189 2.30866 -74.8907 0.420957 0.000575424 0.35866 -1.82215 6.58621 42.1656 -71.4362 -33.8975 85.5455 22.137 -4.75646 78.3227 0.58676 0.000331165 0.0646653 -25.2371 2.09854 91.0481 -4.33713 52.3238 -7.82273 -7.49414 -1.39877 0.680845 6.12272 -14.6227 17.438 -57.8486 6.02986 91.9015 1.72772 40.1908 -0.179149 -8.55378 7.13571 1.23193 2.64875 -23.0541 -5.34027 
-208.027 95.3558 -238.947 -56.8697 38.8877 156.497 -70.1915 0 88.8779 115.82 72.086 -28.6591 -5.0286 24.33 0.944208 -164.209 19.5759 178.644 -159.925 59.2793 -172.252 0.675542 -11.9238 -31.8863 -81.7716 52.1131 -58.5399 9.48667 1.79057 -78.8414 0.420957 0.000575424 0.35866 -1.83974 6.2956 43.7338 -72.0294 -33.8679 82.4387 21.3704 -6.72561 73.2082 0.58676 0.000331165 0.0646653 -27.5111 1.79528 93.0436 -8.21349 67.9454 0.395812 -5.80733 -2.04738 0.397923 6.04028 -14.2584 14.119 -52.1871 4.69471 90.8111 1.61367 44.1153 -3.38401 -2.72968 -6.24178 0.835991 2.15321 -17.3536 -1.64663 
-200.729 93.4153 -232.757 -57.6785 38.2662 156.625 -70.1915 0 88.8779 112.011 71.4546 -26.0203 -4.08976 23.1759 1.29412 -164.126 18.6901 179.118 -159.834 58.4415 -171.477 0.456436 -12.8736 -32.5611 -83.4995 48.5751 -60.9805 12.1179 1.07274 -84.3723 0.420957 0.000575424 0.35866 -1.88701 6.33339 44.2768 -72.6218 -34.737 79.6435 20.6733 -8.92299 67.5526 0.58676 0.000331165 0.0646653 -32.3167 2.9115 94.3488 -19.631 79.2592 13.6572 -3.44007 -0.210872 0.331433 5.52419 -13.1581 10.9639 -45.5399 3.25996 88.0522 1.37587 48.2712 -7.37573 -2.52814 -13.704 1.24484 1.77538 -15.8352 7.17111 
-194.103 91.9898 -226.558 -56.9448 38.5945 157.375 -70.1915 0 88.8779 108.628 70.7212 -20.9422 -2.70576 22.0079 0.835807 -166.429 17.3036 179.753 -161.082 57.1375 -172.856 0.334797 -13.2952 -33.5578 -84.9305 44.7991 -65.0979 13.5566 0.218183 -88.4113 0.420957 0.000575424 0.35866 -1.96618 6.36872 45.3038 -69.6222 -33.5651 79.5518 17.3895 -10.3397 60.1298 0.58676 0.000331165 0.0646653 -38.9728 4.78413 94.4154 -42.8662 84.1044 36.0613 -2.47363 2.41164 0.468291 2.45168 -7.59171 8.79934 -38.6481 4.91517 87.6878 3.41582 50.69 3.52433 -3.48141 -20.113 1.57365 3.17181 -9.00932 -24.8389 
-188.087 91.4212 -220.566 -57.2792 41.1501 158.168 -70.1915 0 88.8779 111.632 69.6286 -22.5106 -2.98281 21.5479 -0.0999589 -164.671 15.763 178.352 -159.822 55.3048 -173.934 0.377311 -13.3042 -32.0284 -85.683 42.9506 -68.7082 15.1512 -0.302239 -90.4159 0.420957 0.000575424 0.35866 -2.07359 6.38255 46.8404 -66.1947 -32.8032 78.3522 15.569 -11.0574 55.4367 0.58676 0.000331165 0.0646653 -50.6119 5.39072 95.6684 -31.7823 82.0515 20.7959 -4.56005 8.73857 1.51839 2.23096 -6.33316 5.22152 -33.4579 6.21039 86.4072 2.36091 51.2799 -3.56915 -0.311204 -21.192 1.81591 0.896184 3.71185 -6.94549 
-181.968 92.6956 -214.26 -56.4033 41.4829 156.92 -70.1915 0 88.8779 106.294 68.9162 -19.2765 -2.52072 19.8024 1.09757 -164.626 14.048 177.657 -159.086 53.4567 -174.349 0.26189 -13.913 -31.5812 -88.6814 41.349 -68.0417 15.1942 -1.57523 -95.0433 0.420957 0.000575424 0.35866 -2.09107 6.42003 46.9129 -65.4703 -33.3665 75.7961 16.4321 -11.1993 56.5994 0.58676 0.000331165 0.0646653 -60.1174 1.64674 95.1746 -13.0017 72.5932 -1.88573 -9.63128 11.3938 2.98823 -1.19929 0.974299 3.57183 -29.2109 6.53426 87.9418 2.32639 46.1803 0.482757 -3.38435 -10.6803 1.10291 2.29653 0.254641 -14.2291 
-175.635 94.6571 -207.341 -55.067 39.3148 156.629 -70.1915 0 88.8779 100.142 67.4467 -14.5516 -2.12639 17.3975 2.61385 -164.848 12.8567 177.117 -158.153 52.1339 -174.816 0.271599 -14.0127 -30.7166 -88.9636 40.1085 -69.2623 15.8574 -2.47247 -97.8801 0.420957 0.000575424 0.35866 -1.92697 6.13471 45.8592 -66.4993 -35.1517 72.9132 14.9383 -8.97062 59.6686 0.58676 0.000331165 0.0646653 -65.0553 -2.56104 90.5751 -6.76712 61.3655 -7.76532 -10.5314 11.4217 3.20076 -2.05757 2.72877 3.55335 -28.0741 5.1971 87.5613 0.916545 32.2675 -0.320976 -2.38769 3.16077 0.278192 -0.0262665 -0.309328 0.321467 
-169.166 96.354 -200.376 -52.4583 36.8492 155.55 -70.1915 0 88.8779 93.3381 66.8907 -8.8643 -1.75604 16.0952 3.9709 -166.088 12.5089 176.113 -158.66 51.6955 -175.7 0.285113 -14.0639 -30.0516 -87.1099 38.565 -71.0139 16.3999 -3.42824 -100.712 0.420957 0.000575424 0.35866 -1.69747 5.58638 44.9983 -69.2059 -37.1969 68.7078 14.781 -7.38012 63.9984 0.58676 0.000331165 0.0646653 -65.4887 -5.45332 86.6663 -4.67015 53.2013 -8.97101 -5.34051 10.238 1.86238 -0.954301 1.22878 1.82728 -28.2182 2.36965 84.7891 1.63532 16.3221 14.2098 11.9042 16.5695 -4.38384 2.58049 -13.1908 -20.7862 
-162.664 97.339 -193.531 -49.2942 35.6584 153.527 -70.1915 0 88.8779 87.1532 67.2033 -2.49912 -1.06986 16.4456 3.39811 -168.204 12.5776 174.855 -158.538 51.5919 -176.805 0.328341 -14.1301 -28.5078 -84.7955 38.9195 -72.3157 18.615 -4.49028 -102.311 0.420957 0.000575424 0.35866 -1.71214 5.57936 45.2849 -71.3148 -37.7191 65.4408 16.7023 -6.5867 68.9937 0.58676 0.000331165 0.0646653 -63.7338 -5.7255 88.4675 -3.70406 46.6528 -10.0562 -2.506 5.79127 0.80747 0.390179 -1.22325 0.873673 -24.7696 0.340914 84.7255 2.1295 19.095 17.8346 9.23388 12.0674 -2.9473 2.34334 -16.831 -19.6905 
-156 97.4142 -186.965 -47.4197 35.3208 151.185 -70.1915 0 88.8779 82.0005 68.21 0.60791 -0.822235 17.1754 3.97427 -169.449 12.8934 174.832 -158.948 52.0059 -175.959 0.328772 -14.1148 -28.5731 -83.3549 38.6589 -72.1514 20.0799 -4.56717 -101.525 0.420957 0.000575424 0.35866 -1.79057 5.54341 46.8121 -71.6863 -35.3521 66.0246 19.3356 -6.40384 72.2496 0.58676 0.000331165 0.0646653 -60.5676 -6.19673 92.3907 -3.28053 42.459 -10.6343 -0.402997 1.43551 0.0787207 3.40913 -7.68421 1.2788 -22.5568 1.89516 93.7928 0.986134 31.8571 11.4239 5.2348 4.84071 -1.12961 2.13267 -19.7849 -23.9395 
